<mxfile host="65bd71144e">
    <diagram id="H_TojHdX5LGii575a1vU" name="Page-1">
        <mxGraphModel dx="1097" dy="689" grid="1" gridSize="10" guides="1" tooltips="1" connect="1" arrows="1" fold="1" page="1" pageScale="1" pageWidth="850" pageHeight="1100" math="0" shadow="0">
            <root>
                <mxCell id="0"/>
                <mxCell id="1" parent="0"/>
                <mxCell id="4" value="" style="rounded=0;whiteSpace=wrap;html=1;fillColor=#fff2cc;strokeColor=#d6b656;" vertex="1" parent="1">
                    <mxGeometry x="60" y="70" width="740" height="90" as="geometry"/>
                </mxCell>
                <mxCell id="2" value="fd" style="ellipse;whiteSpace=wrap;html=1;" vertex="1" parent="1">
                    <mxGeometry x="70" y="95" width="40" height="40" as="geometry"/>
                </mxCell>
                <mxCell id="3" value="" style="rounded=0;whiteSpace=wrap;html=1;fillColor=#dae8fc;strokeColor=#6c8ebf;" vertex="1" parent="1">
                    <mxGeometry x="60" y="180" width="740" height="510" as="geometry"/>
                </mxCell>
                <mxCell id="5" value="用户空间" style="text;html=1;strokeColor=none;fillColor=none;align=center;verticalAlign=middle;whiteSpace=wrap;rounded=0;" vertex="1" parent="1">
                    <mxGeometry y="100" width="60" height="30" as="geometry"/>
                </mxCell>
                <mxCell id="6" value="内核空间" style="text;html=1;strokeColor=none;fillColor=none;align=center;verticalAlign=middle;whiteSpace=wrap;rounded=0;" vertex="1" parent="1">
                    <mxGeometry y="440" width="60" height="30" as="geometry"/>
                </mxCell>
                <mxCell id="7" value="" style="rounded=0;whiteSpace=wrap;html=1;fillColor=#f8cecc;strokeColor=#b85450;" vertex="1" parent="1">
                    <mxGeometry x="103" y="190" width="120" height="270" as="geometry"/>
                </mxCell>
                <mxCell id="8" value="socket" style="text;html=1;strokeColor=none;fillColor=none;align=center;verticalAlign=middle;whiteSpace=wrap;rounded=0;" vertex="1" parent="1">
                    <mxGeometry x="130" y="185" width="60" height="30" as="geometry"/>
                </mxCell>
                <mxCell id="9" value="ops" style="rounded=1;whiteSpace=wrap;html=1;" vertex="1" parent="1">
                    <mxGeometry x="113" y="267" width="100" height="20" as="geometry"/>
                </mxCell>
                <mxCell id="10" value="sk" style="rounded=1;whiteSpace=wrap;html=1;" vertex="1" parent="1">
                    <mxGeometry x="113" y="238" width="100" height="20" as="geometry"/>
                </mxCell>
                <mxCell id="11" value="file" style="rounded=1;whiteSpace=wrap;html=1;" vertex="1" parent="1">
                    <mxGeometry x="113" y="211" width="100" height="20" as="geometry"/>
                </mxCell>
                <mxCell id="12" value="" style="curved=1;endArrow=classic;html=1;exitX=0.5;exitY=1;exitDx=0;exitDy=0;entryX=0;entryY=0.5;entryDx=0;entryDy=0;" edge="1" parent="1" source="2" target="11">
                    <mxGeometry width="50" height="50" relative="1" as="geometry">
                        <mxPoint x="400" y="320" as="sourcePoint"/>
                        <mxPoint x="450" y="270" as="targetPoint"/>
                        <Array as="points">
                            <mxPoint x="90" y="150"/>
                            <mxPoint x="90" y="170"/>
                            <mxPoint x="90" y="190"/>
                            <mxPoint x="90" y="210"/>
                            <mxPoint x="90" y="230"/>
                            <mxPoint x="90" y="240"/>
                            <mxPoint x="90" y="260"/>
                            <mxPoint x="90" y="290"/>
                        </Array>
                    </mxGeometry>
                </mxCell>
                <mxCell id="14" value="" style="rounded=0;whiteSpace=wrap;html=1;fillColor=#e1d5e7;strokeColor=#9673a6;" vertex="1" parent="1">
                    <mxGeometry x="290" y="250" width="120" height="190" as="geometry"/>
                </mxCell>
                <mxCell id="15" value="" style="endArrow=classic;html=1;exitX=1;exitY=0.5;exitDx=0;exitDy=0;entryX=0;entryY=0;entryDx=0;entryDy=0;" edge="1" parent="1" source="10" target="14">
                    <mxGeometry width="50" height="50" relative="1" as="geometry">
                        <mxPoint x="350" y="310" as="sourcePoint"/>
                        <mxPoint x="400" y="260" as="targetPoint"/>
                    </mxGeometry>
                </mxCell>
                <mxCell id="16" value="sock" style="text;html=1;strokeColor=none;fillColor=none;align=center;verticalAlign=middle;whiteSpace=wrap;rounded=0;" vertex="1" parent="1">
                    <mxGeometry x="320" y="245" width="60" height="30" as="geometry"/>
                </mxCell>
            </root>
        </mxGraphModel>
    </diagram>
</mxfile>
